<svg xmlns="http://www.w3.org/2000/svg" viewBox="0 0 200 200" width="100%" height="100%">
  <defs>
    <linearGradient id="blueGrad" x1="0%" y1="0%" x2="0%" y2="100%">
      <stop offset="0%" stop-color="#4a657c" />
      <stop offset="100%" stop-color="#1b365d" />
    </linearGradient>
    <linearGradient id="greenGrad" x1="0%" y1="0%" x2="0%" y2="100%">
      <stop offset="0%" stop-color="#90a894" />
      <stop offset="100%" stop-color="#6a8771" />
    </linearGradient>
  </defs>

  <path d="M 45 165 A 85 85 0 1 1 150 25" fill="none" stroke="url(#blueGrad)" stroke-width="22" />
  
  <path d="M 167 40 A 85 85 0 0 1 150 165" fill="none" stroke="url(#greenGrad)" stroke-width="22" />

  <path d="M 50 180 L 90 60 L 110 60 C 105 80, 105 100, 115 110 C 100 120, 80 130, 70 145 L 60 180 Z" fill="url(#blueGrad)" />
  
  <path d="M 110 60 L 160 180 L 135 180 L 115 110 C 125 95, 125 75, 110 60 Z" fill="url(#greenGrad)" />
</svg>